# xmcd
#
# Track frame offsets: 
#        150
#        22094
#        43959
#        60704
#        83180
#        103628
#        119457
#        142592
#        160284
#        180320
#        201746
#
# Disc length: 2930 seconds
#
# Revision: 5
# Processed by: cddbd v1.5.2PL0 Copyright (c) Steve Scherf et al.
# Submitted via: ExactAudioCopy v0.90b4
#
DISCID=990b700b
DTITLE=Eva Dahlgren - Petroleum och tång
DYEAR=2007
DGENRE=Pop
TTITLE0=Petroleum och tång
TTITLE1=Vad andra gör
TTITLE2=Jag är inte fri
TTITLE3=Novemberregn
TTITLE4=Ingen är som jag
TTITLE5=Skuggorna faller över dig
TTITLE6=När jag såg dig
TTITLE7=Varje dag
TTITLE8=Du och jag
TTITLE9=Ord
TTITLE10=Syre och eld
EXTD=
EXTT0=
EXTT1=
EXTT2=
EXTT3=
EXTT4=
EXTT5=
EXTT6=
EXTT7=
EXTT8=
EXTT9=
EXTT10=
PLAYORDER=
